<?xml version="1.0" encoding="UTF-8"?>
<svg version="1.1" xmlns="http://www.w3.org/2000/svg" width="384" height="738">
<path d="M0 0 C126.72 0 253.44 0 384 0 C384 243.54 384 487.08 384 738 C257.28 738 130.56 738 0 738 C0 494.46 0 250.92 0 0 Z " fill="#0F3535" transform="translate(0,0)"/>
<path d="M0 0 C2.63094915 1.77754092 5.04443602 3.52326067 7.125 5.9375 C7.125 6.5975 7.125 7.2575 7.125 7.9375 C3.495 9.9175 -0.135 11.8975 -3.875 13.9375 C-3.029375 14.36160156 -2.18375 14.78570312 -1.3125 15.22265625 C13.31034447 22.78333151 23.2189769 32.6309562 28.6875 48.4375 C30.56293579 55.31975532 30.41168548 61.84203449 30.125 68.9375 C25.835 66.6275 21.545 64.3175 17.125 61.9375 C17.8675 64.226875 17.8675 64.226875 18.625 66.5625 C22.66506295 81.58768648 19.98376473 97.4129347 12.30078125 110.8046875 C8.58148032 116.15994664 4.15250051 120.77709743 -0.875 124.9375 C-1.535 124.9375 -2.195 124.9375 -2.875 124.9375 C-3.205 118.6675 -3.535 112.3975 -3.875 105.9375 C-4.803125 107.835 -5.73125 109.7325 -6.6875 111.6875 C-17.38352908 132.2029624 -37.50785366 144.321395 -58.92578125 151.125 C-61.875 151.9375 -61.875 151.9375 -63.875 151.9375 C-63.875 148.6375 -63.875 145.3375 -63.875 141.9375 C-64.57109375 141.7209375 -65.2671875 141.504375 -65.984375 141.28125 C-69.62256637 139.58998266 -72.2528136 137.17283442 -75.125 134.4375 C-75.69420166 133.89996094 -76.26340332 133.36242187 -76.84985352 132.80859375 C-85.55839122 124.50142205 -91.85456621 117.00820016 -96.875 105.9375 C-97.205 112.2075 -97.535 118.4775 -97.875 124.9375 C-109.01564886 119.36717557 -115.31448373 108.0438956 -119.3125 96.625 C-122.50956789 85.18141795 -121.60879728 73.13889185 -117.875 61.9375 C-118.64585938 62.35902344 -119.41671875 62.78054688 -120.2109375 63.21484375 C-121.21382812 63.76269531 -122.21671875 64.31054688 -123.25 64.875 C-124.24773437 65.42027344 -125.24546875 65.96554687 -126.2734375 66.52734375 C-127.79570346 67.3524759 -129.32628783 68.16314391 -130.875 68.9375 C-131.76997928 53.74771284 -127.58771886 40.2163799 -118.125 28.1875 C-112.54932072 22.08498488 -105.07668353 17.85145844 -97.875 13.9375 C-101.175 11.9575 -104.475 9.9775 -107.875 7.9375 C-104.12166476 0.43082953 -95.72116895 -4.39480256 -87.875 -7.0625 C-82.56948937 -8.30204932 -77.42313406 -8.24641801 -72 -8.25 C-71.03191406 -8.26224609 -70.06382812 -8.27449219 -69.06640625 -8.28710938 C-63.56612572 -8.29833444 -59.08387473 -7.81235635 -53.875 -6.0625 C-49.12584979 -5.58758498 -45.14537315 -6.42887018 -40.5625 -7.5625 C-25.81207651 -11.12352901 -12.63071391 -8.22322731 0 0 Z " fill="#143835" transform="translate(243.875,296.0625)"/>
<path d="M0 0 C2.63094915 1.77754092 5.04443602 3.52326067 7.125 5.9375 C7.125 6.5975 7.125 7.2575 7.125 7.9375 C3.495 9.9175 -0.135 11.8975 -3.875 13.9375 C-3.029375 14.36160156 -2.18375 14.78570312 -1.3125 15.22265625 C13.31034447 22.78333151 23.2189769 32.6309562 28.6875 48.4375 C30.56293579 55.31975532 30.41168548 61.84203449 30.125 68.9375 C25.835 66.6275 21.545 64.3175 17.125 61.9375 C17.8675 64.226875 17.8675 64.226875 18.625 66.5625 C22.66506295 81.58768648 19.98376473 97.4129347 12.30078125 110.8046875 C8.58148032 116.15994664 4.15250051 120.77709743 -0.875 124.9375 C-1.535 124.9375 -2.195 124.9375 -2.875 124.9375 C-3.205 118.6675 -3.535 112.3975 -3.875 105.9375 C-4.803125 107.835 -5.73125 109.7325 -6.6875 111.6875 C-17.38352908 132.2029624 -37.50785366 144.321395 -58.92578125 151.125 C-61.875 151.9375 -61.875 151.9375 -63.875 151.9375 C-63.875 148.6375 -63.875 145.3375 -63.875 141.9375 C-64.57109375 141.7209375 -65.2671875 141.504375 -65.984375 141.28125 C-69.62256637 139.58998266 -72.2528136 137.17283442 -75.125 134.4375 C-75.69420166 133.89996094 -76.26340332 133.36242187 -76.84985352 132.80859375 C-85.55839122 124.50142205 -91.85456621 117.00820016 -96.875 105.9375 C-97.205 112.2075 -97.535 118.4775 -97.875 124.9375 C-109.01564886 119.36717557 -115.31448373 108.0438956 -119.3125 96.625 C-122.50956789 85.18141795 -121.60879728 73.13889185 -117.875 61.9375 C-118.64585938 62.35902344 -119.41671875 62.78054688 -120.2109375 63.21484375 C-121.21382812 63.76269531 -122.21671875 64.31054688 -123.25 64.875 C-124.24773437 65.42027344 -125.24546875 65.96554687 -126.2734375 66.52734375 C-127.79570346 67.3524759 -129.32628783 68.16314391 -130.875 68.9375 C-131.76997928 53.74771284 -127.58771886 40.2163799 -118.125 28.1875 C-112.54932072 22.08498488 -105.07668353 17.85145844 -97.875 13.9375 C-101.175 11.9575 -104.475 9.9775 -107.875 7.9375 C-104.12166476 0.43082953 -95.72116895 -4.39480256 -87.875 -7.0625 C-82.56948937 -8.30204932 -77.42313406 -8.24641801 -72 -8.25 C-71.03191406 -8.26224609 -70.06382812 -8.27449219 -69.06640625 -8.28710938 C-63.56612572 -8.29833444 -59.08387473 -7.81235635 -53.875 -6.0625 C-49.12584979 -5.58758498 -45.14537315 -6.42887018 -40.5625 -7.5625 C-25.81207651 -11.12352901 -12.63071391 -8.22322731 0 0 Z M-94.875 5.9375 C-93.57376154 9.84121537 -91.75784282 10.7545602 -88.4375 13.125 C-87.44878906 13.84042969 -86.46007812 14.55585938 -85.44140625 15.29296875 C-83.10236072 17.11734212 -83.10236072 17.11734212 -80.875 16.9375 C-80.875 17.5975 -80.875 18.2575 -80.875 18.9375 C-82.669375 18.9684375 -82.669375 18.9684375 -84.5 19 C-96.95220812 20.46842077 -107.31897169 28.36402466 -114.875 37.9375 C-118.12738164 43.16657184 -120.875 47.70139923 -120.875 53.9375 C-120.2459375 53.73253906 -119.616875 53.52757812 -118.96875 53.31640625 C-113.57218181 51.61778765 -108.50840386 50.45911147 -102.875 49.9375 C-103.47248047 50.84628906 -103.47248047 50.84628906 -104.08203125 51.7734375 C-111.77627783 63.94195399 -113.8335768 76.12766264 -111.265625 90.30078125 C-110.11082129 94.65486259 -108.5749453 98.76893848 -106.875 102.9375 C-106.215 102.9375 -105.555 102.9375 -104.875 102.9375 C-104.77703125 102.32003906 -104.6790625 101.70257813 -104.578125 101.06640625 C-103.20914695 93.31279778 -100.38316017 86.92249749 -96.875 79.9375 C-96.59527344 80.93007813 -96.31554687 81.92265625 -96.02734375 82.9453125 C-91.69419786 97.84269392 -86.03527034 109.93441657 -74.875 120.9375 C-72.80408616 117.95741416 -72.80408616 117.95741416 -71.1875 114.625 C-67.19873623 107.67399255 -60.54163629 103.10329153 -52.875 100.9375 C-47.01206492 100.27355918 -42.63988965 102.78175175 -37.984375 106.12890625 C-32.91361624 110.47661237 -29.60079738 115.88017248 -26.875 121.9375 C-16.42846324 114.32023361 -8.44545789 100.52432501 -6.3515625 87.7421875 C-6.10475663 85.13404982 -5.93169961 82.55599124 -5.875 79.9375 C-5.215 79.9375 -4.555 79.9375 -3.875 79.9375 C0.09180154 87.69401373 2.73302839 95.32925454 4.125 103.9375 C9.3128745 99.5374689 10.68036009 92.16744155 11.36572266 85.64746094 C12.24320204 71.92535482 10.09668698 61.33962605 2.125 49.9375 C8.1759304 51.10304807 14.15966226 52.39093096 20.125 53.9375 C18.90279062 44.45148859 13.84961507 36.58410249 6.94921875 30.08203125 C3.49179919 27.45668777 -0.07787405 25.41016795 -3.9375 23.4375 C-4.5979834 23.09887939 -5.2584668 22.76025879 -5.93896484 22.41137695 C-10.60841821 20.17843672 -14.7177948 19.35145627 -19.875 18.9375 C-19.875 18.2775 -19.875 17.6175 -19.875 16.9375 C-19.32328125 16.6796875 -18.7715625 16.421875 -18.203125 16.15625 C-15.53185825 14.75786875 -13.10648091 13.14986695 -10.625 11.4375 C-9.28695312 10.52484375 -9.28695312 10.52484375 -7.921875 9.59375 C-7.24640625 9.0471875 -6.5709375 8.500625 -5.875 7.9375 C-5.875 7.2775 -5.875 6.6175 -5.875 5.9375 C-7.41121735 5.11474328 -8.95428632 4.30477423 -10.5 3.5 C-11.35851562 3.04753906 -12.21703125 2.59507812 -13.1015625 2.12890625 C-18.42974654 -0.15996154 -23.8925233 -0.28438954 -29.625 -0.3125 C-30.33019775 -0.31644775 -31.03539551 -0.32039551 -31.76196289 -0.32446289 C-36.82829695 -0.26820251 -40.91334619 0.64660972 -45.640625 2.328125 C-50.59786414 3.68009931 -55.34109304 2.42179475 -60.12890625 0.91015625 C-64.24776468 -0.15928666 -67.89387774 -0.44616047 -72.125 -0.4375 C-73.23609131 -0.4372583 -73.23609131 -0.4372583 -74.36962891 -0.43701172 C-82.02318288 -0.27905221 -88.48636668 1.67841112 -94.875 5.9375 Z " fill="#F7AE17" transform="translate(243.875,296.0625)"/>
<path d="M0 0 C10.1222375 5.89601863 19.87626346 15.20054574 23.875 26.46484375 C24.09603987 30.94780855 21.54891436 33.82288795 18.96484375 37.3046875 C16.30830208 40.94885003 14.65778831 44.82978716 13 49 C9.24480943 48.48792856 6.33311475 47.7824918 3 46 C3.74056641 47.64548828 3.74056641 47.64548828 4.49609375 49.32421875 C5.1434956 50.77852726 5.79061624 52.23296097 6.4375 53.6875 C6.76298828 54.40873047 7.08847656 55.12996094 7.42382812 55.87304688 C10.82892726 63.56084801 10.82892726 63.56084801 11 67 C9.9609375 69.421875 9.9609375 69.421875 8.375 71.75 C7.61316406 72.91789062 7.61316406 72.91789062 6.8359375 74.109375 C5 76 5 76 2.734375 76.97265625 C-1.08876864 77.01088769 -3.85111907 75.46918047 -7.125 73.6875 C-7.74503906 73.36587891 -8.36507812 73.04425781 -9.00390625 72.71289062 C-11.77364505 71.26250052 -14.39678541 69.7354764 -17 68 C-17.11922584 65.07896689 -17.15216364 63.62916637 -16 61 C-12.90465339 58.26850163 -9.53917777 56.11322956 -6 54 C-6.495 52.02 -6.495 52.02 -7 50 C-7.99 50.33 -8.98 50.66 -10 51 C-13.12106493 51.22608152 -16.24657058 51.18515133 -19.375 51.1875 C-20.22578125 51.19974609 -21.0765625 51.21199219 -21.953125 51.22460938 C-26.41618112 51.23503708 -29.94546621 51.11069352 -34 49 C-33.27851297 53.89674388 -33.27851297 53.89674388 -30.15625 57.5078125 C-28.74959799 58.35893889 -27.32250276 59.17740201 -25.875 59.95703125 C-24 61 -24 61 -22 63 C-21.9375 65.3125 -21.9375 65.3125 -23 68 C-28.26848495 72.50016423 -34.62982727 76.32049143 -41.5625 77.3984375 C-44 77 -44 77 -45.8359375 74.98828125 C-46.34382813 74.10527344 -46.85171875 73.22226562 -47.375 72.3125 C-47.89835938 71.44238281 -48.42171875 70.57226562 -48.9609375 69.67578125 C-51.25816293 63.75999396 -47.45486011 58.18639606 -45.05859375 52.7421875 C-43.81993177 50.02345417 -43.81993177 50.02345417 -44 47 C-46.64 47.66 -49.28 48.32 -52 49 C-52.45890625 48.04738281 -52.9178125 47.09476562 -53.390625 46.11328125 C-54.01008974 44.84619428 -54.62989981 43.5792761 -55.25 42.3125 C-55.55035156 41.68666016 -55.85070312 41.06082031 -56.16015625 40.41601562 C-57.67146358 37.34516775 -59.02803288 34.96772405 -61.296875 32.35546875 C-63 30 -63 30 -62.90625 27.515625 C-59.58646093 18.30034845 -54.39355081 11.34961091 -47 5 C-46.26523438 4.36449219 -45.53046875 3.72898437 -44.7734375 3.07421875 C-40.80891114 0.02727711 -37.93903241 -1.43144674 -32.875 -1.125 C-29.53636986 -0.5651055 -27.01182737 0.37316459 -24.125 2.125 C-21.33587486 4.23021876 -21.33587486 4.23021876 -19.140625 3.78515625 C-15.55687453 2.47067843 -12.23067581 0.62898694 -8.8515625 -1.13671875 C-5.12204703 -2.26579124 -3.51006935 -1.60092285 0 0 Z " fill="#FAAF17" transform="translate(213,318)"/>
<path d="M0 0 C4.29 0 8.58 0 13 0 C13.33 4.95 13.66 9.9 14 15 C14.99 14.34 15.98 13.68 17 13 C21.80634735 12.4271072 26.42568673 12.36357549 30.9375 14.1875 C34.31495623 17.15556759 36.772857 19.4763101 37.45410156 24.04614258 C37.4331543 25.15111084 37.41220703 26.2560791 37.390625 27.39453125 C37.37773437 28.59658203 37.36484375 29.79863281 37.3515625 31.03710938 C37.31804687 32.28298828 37.28453125 33.52886719 37.25 34.8125 C37.23195312 36.07771484 37.21390625 37.34292969 37.1953125 38.64648438 C37.14824589 41.76464737 37.07650502 44.88242038 37 48 C33.04 48 29.08 48 25 48 C24.95101562 46.43507813 24.90203125 44.87015625 24.8515625 43.2578125 C24.77654271 41.21352322 24.70099455 39.16925328 24.625 37.125 C24.5940625 36.09246094 24.563125 35.05992187 24.53125 33.99609375 C24.49257812 33.00996094 24.45390625 32.02382813 24.4140625 31.0078125 C24.36693115 29.64100342 24.36693115 29.64100342 24.31884766 28.24658203 C24.20117489 25.80068814 24.20117489 25.80068814 22 24 C17.65805064 24.09695116 17.65805064 24.09695116 14 26 C13.84285346 27.63256758 13.74914586 29.27135338 13.68359375 30.91015625 C13.64169922 31.89951172 13.59980469 32.88886719 13.55664062 33.90820312 C13.51732422 34.94912109 13.47800781 35.99003906 13.4375 37.0625 C13.39431641 38.10728516 13.35113281 39.15207031 13.30664062 40.22851562 C13.20018895 42.81883972 13.09955692 45.40940175 13 48 C8.71 48 4.42 48 0 48 C0 32.16 0 16.32 0 0 Z " fill="#F5AC18" transform="translate(160,492)"/>
<path d="M0 0 C0.62648437 0.31324219 1.25296875 0.62648438 1.8984375 0.94921875 C3.29039665 5.1250962 1.72166969 7.08396651 -0.1015625 10.94921875 C-5.8515625 10.07421875 -5.8515625 10.07421875 -8.1015625 8.94921875 C-9.59913121 8.85422372 -11.10099182 8.81934677 -12.6015625 8.82421875 C-13.395625 8.82164062 -14.1896875 8.8190625 -15.0078125 8.81640625 C-17.16074784 8.81643879 -17.16074784 8.81643879 -19.1015625 9.94921875 C-19.1015625 11.26921875 -19.1015625 12.58921875 -19.1015625 13.94921875 C-17.36519531 14.40361328 -17.36519531 14.40361328 -15.59375 14.8671875 C-14.05446443 15.28955244 -12.51541407 15.71277527 -10.9765625 16.13671875 C-10.21601563 16.33330078 -9.45546875 16.52988281 -8.671875 16.73242188 C-3.365054 18.21924672 -0.05638293 20.08680067 3.8984375 23.94921875 C5.98684551 28.12603477 5.21476045 32.79689943 4.0234375 37.13671875 C0.76168213 41.45374791 -2.9703166 43.35676312 -8.1015625 44.94921875 C-16.80284575 46.0767689 -25.22947878 44.88526061 -33.1015625 40.94921875 C-32.58949106 37.19402818 -31.8840543 34.2823335 -30.1015625 30.94921875 C-28.8846875 31.44421875 -27.6678125 31.93921875 -26.4140625 32.44921875 C-20.367688 34.50653148 -14.41420337 34.21265199 -8.1015625 33.94921875 C-8.1015625 32.29921875 -8.1015625 30.64921875 -8.1015625 28.94921875 C-9.18695313 28.706875 -10.27234375 28.46453125 -11.390625 28.21484375 C-12.83608757 27.87694341 -14.28139189 27.53836562 -15.7265625 27.19921875 C-16.43941406 27.04195312 -17.15226563 26.8846875 -17.88671875 26.72265625 C-23.60721044 25.3581353 -28.17147082 23.32966515 -31.9765625 18.63671875 C-33.45273493 15.11030683 -33.56775145 12.74532875 -33.1015625 8.94921875 C-30.44798661 3.53592393 -27.33327677 1.51751485 -22.1015625 -1.05078125 C-14.78138988 -3.49083879 -7.2332484 -2.15628383 0 0 Z " fill="#F8AE17" transform="translate(150.1015625,496.05078125)"/>
<path d="M0 0 C4.20000588 2.46237351 6.49787081 5.78616626 8.25 10.3125 C8.61363929 13.31252416 8.5 16.35301746 8.5 19.375 C0.25 19.375 -8 19.375 -16.5 19.375 C-12.97435573 23.76590641 -12.97435573 23.76590641 -8.5625 23.6875 C-6.0720081 23.58603552 -4.22179051 23.29089015 -1.8125 22.5625 C-1.049375 22.500625 -0.28625 22.43875 0.5 22.375 C3.3125 24.8125 3.3125 24.8125 5.5 27.375 C4.5 30.375 4.5 30.375 2.71484375 31.54296875 C-5.14821465 35.06313726 -11.23209473 35.46000088 -19.38671875 32.48828125 C-23.87820937 30.12215403 -26.43314664 26.26624005 -28.875 21.9375 C-30.26978358 16.21888732 -30.30789336 12.18325859 -27.3125 7.125 C-20.97458331 -2.01380905 -10.26835938 -4.66040416 0 0 Z " fill="#F5AD18" transform="translate(232.5,506.625)"/>
<path d="M0 0 C3.96 0 7.92 0 12 0 C12.33 0.99 12.66 1.98 13 3 C13.70125 2.505 14.4025 2.01 15.125 1.5 C18.37119719 -0.1936681 20.39340156 -0.25162315 24 0 C24 3.63 24 7.26 24 11 C22.72125 11.12375 21.4425 11.2475 20.125 11.375 C16.65209064 11.69042399 16.65209064 11.69042399 14 14 C13.62995706 16.22658154 13.62995706 16.22658154 13.5859375 18.7890625 C13.52792969 20.20058594 13.52792969 20.20058594 13.46875 21.640625 C13.42234375 23.11789062 13.42234375 23.11789062 13.375 24.625 C13.31699219 26.11386719 13.31699219 26.11386719 13.2578125 27.6328125 C13.16337339 30.08822942 13.08059119 32.54408957 13 35 C8.71 35 4.42 35 0 35 C0 23.45 0 11.9 0 0 Z " fill="#F0AA18" transform="translate(246,505)"/>
<path d="M0 0 C4.26630636 2.30380543 7.56169055 4.77984903 10 9 C11.00644627 13.20291962 10.90079397 16.51072171 8.63671875 20.25390625 C4.96995398 24.66865851 2.37424187 26.31287906 -3 29 C-3.99 24.38 -4.98 19.76 -6 15 C-7.11375 15.99 -8.2275 16.98 -9.375 18 C-12.75 21 -12.75 21 -15 21 C-17.34728069 17.33237392 -17.4430704 14.28301385 -17 10 C-13.70223278 3.27255488 -7.79753122 -1.32723936 0 0 Z " fill="#143835" transform="translate(196,405)"/>
<path d="M0 0 C1.0621875 0.26554687 2.124375 0.53109375 3.21875 0.8046875 C4.24742187 1.06185547 4.24742187 1.06185547 5.296875 1.32421875 C6.02390625 1.50597656 6.7509375 1.68773437 7.5 1.875 C8.19609375 2.04902344 8.8921875 2.22304688 9.609375 2.40234375 C12.51171875 3.12792969 15.4140625 3.85351562 18.31640625 4.57910156 C19.04730469 4.76182617 19.77820313 4.94455078 20.53125 5.1328125 C21.6759375 5.41898437 22.820625 5.70515625 24 6 C23.66226563 6.92941406 23.32453125 7.85882813 22.9765625 8.81640625 C22.53054687 10.05261719 22.08453125 11.28882813 21.625 12.5625 C21.18414062 13.78066406 20.74328125 14.99882812 20.2890625 16.25390625 C19.0627446 19.81766039 18.00018873 23.36847363 17 27 C14.60926555 23.17482487 14.44033448 19.40334476 14 15 C13.113125 14.79375 12.22625 14.5875 11.3125 14.375 C5.74165849 12.06257522 2.75518402 7.22034868 0 2 C0 1.34 0 0.68 0 0 Z " fill="#1A3B34" transform="translate(164,333)"/>
<path d="M0 0 C-0.447571 4.92328105 -2.64832841 8.47775988 -6 12 C-7.81640625 13.01953125 -7.81640625 13.01953125 -9.6875 13.875 C-13.09630783 15.6075255 -13.09630783 15.6075255 -13.890625 18.2421875 C-14.38237001 20.49718961 -14.75975869 22.70545038 -15 25 C-15.66 25 -16.32 25 -17 25 C-17.81436587 22.58394775 -18.62655397 20.16720002 -19.4375 17.75 C-19.66759766 17.06808594 -19.89769531 16.38617188 -20.13476562 15.68359375 C-21.20925541 12.4756967 -22.20955632 9.28875364 -23 6 C-19.54289448 4.99572108 -16.08412303 3.9973056 -12.625 3 C-11.64015625 2.71382813 -10.6553125 2.42765625 -9.640625 2.1328125 C-8.69960937 1.86210937 -7.75859375 1.59140625 -6.7890625 1.3125 C-5.91975098 1.06113281 -5.05043945 0.80976563 -4.15478516 0.55078125 C-2 0 -2 0 0 0 Z " fill="#193B34" transform="translate(222,333)"/>
<path d="M0 0 C3.01311815 0.81605283 4.20216235 1.31550326 6 3.8125 C6 4.4725 6 5.1325 6 5.8125 C1.71 5.8125 -2.58 5.8125 -7 5.8125 C-5.82295128 1.1043051 -4.98213957 -0.31138372 0 0 Z " fill="#1B3B34" transform="translate(223,513.1875)"/>
</svg>
