<svg width="106" height="106" viewBox="0 0 106 106" fill="none" xmlns="http://www.w3.org/2000/svg">
<path fill-rule="evenodd" clip-rule="evenodd" d="M6.49223 10.7098C0.200195 18.4935 0.200195 29.9956 0.200195 53C0.200195 76.0043 0.200195 87.5064 6.49223 95.2901C7.74568 96.8407 9.15948 98.2545 10.7101 99.5079C18.4937 105.8 29.9959 105.8 53.0002 105.8C76.0045 105.8 87.5067 105.8 95.2903 99.5079C96.8409 98.2545 98.2547 96.8407 99.5082 95.2901C105.8 87.5064 105.8 76.0043 105.8 53C105.8 29.9956 105.8 18.4935 99.5082 10.7098C98.2547 9.15924 96.8409 7.74544 95.2903 6.49199C87.5067 0.199951 76.0045 0.199951 53.0002 0.199951C29.9959 0.199951 18.4937 0.199951 10.7101 6.49199C9.15948 7.74544 7.74568 9.15924 6.49223 10.7098ZM46.3777 91.9193L45.9523 96.5819C45.9523 96.5819 69.455 92.726 77.972 71.3077C77.972 71.3077 79.0113 77.2405 78.0267 83.0901C96.7195 69.0489 88.361 49.0822 88.361 49.0822C88.361 49.0822 92.2245 50.0293 95.7767 53.4525C95.7767 53.4525 97.5584 31.4935 77.1232 24.3935C77.1232 24.3935 80.6725 21.8355 83.7066 20.5902L83.6632 20.5191C71.2459 6.464 53.267 14.4957 53.267 14.4957C53.267 14.4957 35.377 6.464 22.8708 20.5191L22.8274 20.5902C25.8615 21.8355 29.4108 24.3935 29.4108 24.3935C8.97551 31.4935 10.7572 53.4525 10.7572 53.4525C13.9417 50.3754 18.173 49.0822 18.173 49.0822C18.173 49.0822 9.81444 69.0489 28.5073 83.0901C27.5227 77.2404 28.5619 71.3077 28.5619 71.3077C31.7735 82.4137 46.3777 91.9193 46.3777 91.9193ZM37.3201 26.3292C37.3201 26.3292 32.7836 22.4842 29.4031 20.5478C39.7273 12.7381 53.1785 19.1565 53.1785 19.1565C53.1785 19.1565 66.6296 12.7381 76.9539 20.5478C73.5734 22.4842 69.0369 26.3292 69.0369 26.3292C69.0369 26.3292 86.9547 28.7423 90.2874 45.1887C90.2874 45.1887 84.011 42.699 79.6218 42.0679C87.1404 49.9279 87.5244 63.2775 82.1077 71.5529C81.6014 66.9572 80.1813 61.8466 76.9759 58.3695C76.1007 71.8077 65.4703 81.5006 65.4703 81.5006C65.4703 81.5006 64.5423 72.0487 53.1841 69.1603C43.7211 71.864 41.3071 77.1991 40.7287 80.3182C40.7287 80.3182 30.8025 72.6528 29.3579 58.024C26.3072 61.8209 24.6816 66.4984 24.1577 71.316C19.2418 63.0335 19.3197 49.853 26.7351 42.0679C20.1979 43.2934 16.0614 45.2292 16.0614 45.2292C19.3728 28.747 37.3201 26.3292 37.3201 26.3292ZM51.1788 81.8301C49.671 82.6974 48.3511 83.9867 47.3461 85.3378C43.9582 81.1019 45.5992 75.8732 53.0522 73.7357C63.0669 76.8523 61.6641 85.7029 52.8605 89.3067C52.8846 87.1265 52.5447 84.3198 51.1788 81.8301ZM30.354 43.3878C34.5347 31.3834 45.2071 27.4037 45.2071 27.4037C49.8438 28.6368 53.1783 31.0362 53.1783 31.0362C53.1783 31.0362 56.5128 28.6368 61.1495 27.4037C61.1495 27.4037 71.8219 31.3834 76.0026 43.3878C76.0026 43.3878 71.7702 48.5401 70.2381 54.1042C68.4481 53.9909 64.9672 52.286 64.9672 52.286C64.9672 52.286 66.1829 57.4752 69.355 62.4969C69.355 62.4969 67.6973 67.1427 65.0877 69.0828C59.7601 67.5368 54.6432 63.6582 54.6432 63.6582C54.1133 60.7019 56.018 59.7547 57.8352 58.851C59.7811 57.8832 61.6267 56.9654 60.2753 53.6839C60.7847 55.5944 45.5719 55.5944 46.0813 53.6839C44.7299 56.9654 46.5755 57.8832 48.5214 58.8509C50.3386 59.7547 52.2433 60.7019 51.7133 63.6582C51.7133 63.6582 46.5965 67.5368 41.269 69.0828C38.6593 67.1427 37.0016 62.4969 37.0016 62.4969C40.1737 57.4752 41.3894 52.286 41.3894 52.286C41.3894 52.286 37.9085 53.9909 36.1185 54.1042C34.5864 48.5401 30.354 43.3878 30.354 43.3878ZM45.1221 44.2142C39.2423 42.4005 37.8619 36.1702 37.8619 36.1702C37.8619 36.1702 45.2352 38.602 50.607 39.2953C47.7192 43.7745 46.5612 50.7824 46.5612 50.7824L45.1221 44.2142ZM61.2345 44.2142C67.1143 42.4005 68.4947 36.1702 68.4947 36.1702C68.4947 36.1702 61.1214 38.602 55.7496 39.2953C58.6373 43.7745 59.7953 50.7824 59.7953 50.7824L61.2345 44.2142Z" fill="#36676E"/>
</svg>
